<svg width="64" height="16" viewBox="0 0 64 16" fill="none" xmlns="http://www.w3.org/2000/svg">
<path d="M56 12V8" stroke="#007EC1" stroke-width="2" stroke-linecap="square" stroke-linejoin="round"/>
<path d="M56 5V4" stroke="#007EC1" stroke-width="2" stroke-linecap="square" stroke-linejoin="round"/>
<circle cx="56" cy="8" r="7" stroke="#007EC1" stroke-width="2"/>
<circle cx="8" cy="8" r="7" fill="#F2F8FC" stroke="#007EC1" stroke-width="2"/>
<path fill-rule="evenodd" clip-rule="evenodd" d="M4.80762 6.19208C4.80762 4.40113 6.06777 3 7.99969 3C9.92627 3 11.1918 4.53346 11.1918 6.35168C11.1918 8.96888 9.76977 10.1822 7.99969 10.1822C6.21282 10.1822 4.80762 8.92719 4.80762 6.19208ZM6.40424 6.19186C6.40424 8.00277 7.05719 8.58592 8.00028 8.58592C8.94011 8.58592 9.59632 8.02602 9.59632 6.35146C9.59632 5.35427 8.9704 4.59582 8.00028 4.59582C6.98978 4.59582 6.40424 5.24686 6.40424 6.19186Z" fill="#007EC1"/>
<path fill-rule="evenodd" clip-rule="evenodd" d="M2.93771 14C2.46084 13.6642 2.01882 13.2822 1.61816 12.8605C1.85759 10.8359 4.28308 10 7.99864 10C11.7142 10 14.1397 10.8359 14.3791 12.8605C13.9785 13.2822 13.5364 13.6642 13.0596 14H12.7986V13.2C12.7986 12.2417 11.0833 11.6 7.99864 11.6C4.914 11.6 3.19864 12.2417 3.19864 13.2V14H2.93771Z" fill="#007EC1"/>
<mask id="path-7-inside-1_317_20" fill="white">
<rect x="25" y="2" width="16" height="12" rx="1"/>
</mask>
<rect x="25" y="2" width="16" height="12" rx="1" stroke="#007EC1" stroke-width="4" mask="url(#path-7-inside-1_317_20)"/>
<path d="M26.5 3.38477L32.3642 8.53284C32.7312 8.85502 33.2772 8.865 33.6558 8.55643L40 3.38477" stroke="#007EC1" stroke-width="2"/>
</svg>
